Normalized EMG Linear Envelopes
nRows=222
nColumns=4

endheader
time	 med_gas_r	  soleus_r	 tib_ant_r	
2.66129	  0.007134	  0.026519	  0.021378	
2.69456	  0.007358	  0.024441	  0.021730	
2.72782	  0.007575	  0.022508	  0.022018	
2.76109	  0.007775	  0.020858	  0.022192	
2.79435	  0.007938	  0.019630	  0.022250	
2.82762	  0.008044	  0.018895	  0.022229	
2.86089	  0.008089	  0.018611	  0.022189	
2.89415	  0.008088	  0.018643	  0.022176	
2.92742	  0.008066	  0.018812	  0.022207	
2.96069	  0.008046	  0.018961	  0.022267	
2.99395	  0.008042	  0.018975	  0.022323	
3.02722	  0.008060	  0.018799	  0.022343	
3.06048	  0.008098	  0.018440	  0.022311	
3.09375	  0.008137	  0.017973	  0.022228	
3.12702	  0.008157	  0.017525	  0.022110	
3.16028	  0.008141	  0.017238	  0.021984	
3.19355	  0.008087	  0.017209	  0.021877	
3.22681	  0.008001	  0.017442	  0.021816	
3.26008	  0.007887	  0.017846	  0.021829	
3.29335	  0.007748	  0.018278	  0.021936	
3.32661	  0.007596	  0.018634	  0.022140	
3.35988	  0.007462	  0.018902	  0.022411	
3.39315	  0.007391	  0.019155	  0.022694	
3.42641	  0.007414	  0.019476	  0.022924	
3.45968	  0.007531	  0.019871	  0.023062	
3.49294	  0.007710	  0.020256	  0.023102	
3.52621	  0.007901	  0.020508	  0.023061	
3.55948	  0.008057	  0.020558	  0.022958	
3.59274	  0.008144	  0.020439	  0.022797	
3.62601	  0.008151	  0.020250	  0.022580	
3.65927	  0.008089	  0.020080	  0.022322	
3.69254	  0.007978	  0.019946	  0.022059	
3.72581	  0.007839	  0.019790	  0.021834	
3.75907	  0.007684	  0.019529	  0.021685	
3.79234	  0.007521	  0.019131	  0.021631	
3.8256	  0.007352	  0.018657	  0.021671	
3.85887	  0.007183	  0.018240	  0.021780	
3.89214	  0.007028	  0.018018	  0.021915	
3.9254	  0.006904	  0.018057	  0.022029	
3.95867	  0.006824	  0.018319	  0.022090	
3.99194	  0.006790	  0.018691	  0.022108	
4.0252	  0.006797	  0.019041	  0.022130	
4.05847	  0.006841	  0.019275	  0.022215	
4.09173	  0.006925	  0.019353	  0.022400	
4.125	  0.007068	  0.019290	  0.022677	
4.15827	  0.007291	  0.019140	  0.023005	
4.19153	  0.007605	  0.018977	  0.023341	
4.2248	  0.007991	  0.018876	  0.023659	
4.25806	  0.008401	  0.018870	  0.023942	
4.29133	  0.008759	  0.018934	  0.024151	
4.3246	  0.008981	  0.018986	  0.024197	
4.35786	  0.009008	  0.018931	  0.023953	
4.39113	  0.008826	  0.018696	  0.023306	
4.4244	  0.008470	  0.018251	  0.022207	
4.45766	  0.008009	  0.017602	  0.020675	
4.49093	  0.007515	  0.016791	  0.018771	
4.52419	  0.007046	  0.015896	  0.016600	
4.55746	  0.006648	  0.015025	  0.014377	
4.59073	  0.006371	  0.014326	  0.012531	
4.62399	  0.006268	  0.013998	  0.011786	
4.65726	  0.006398	  0.014308	  0.013191	
4.69052	  0.006820	  0.015612	  0.018114	
4.72379	  0.007597	  0.018354	  0.028219	
4.75706	  0.008794	  0.023015	  0.045297	
4.79032	  0.010471	  0.029976	  0.070795	
4.82359	  0.012678	  0.039333	  0.105079	
4.85685	  0.015429	  0.050758	  0.146802	
4.89012	  0.018696	  0.063578	  0.192870	
4.92339	  0.022396	  0.077059	  0.239167	
4.95665	  0.026375	  0.090771	  0.281700	
4.98992	  0.030424	  0.104778	  0.317596	
5.02319	  0.034327	  0.119558	  0.345654	
5.05645	  0.037930	  0.135754	  0.366399	
5.08972	  0.041196	  0.153895	  0.381718	
5.12298	  0.044167	  0.174173	  0.394173	
5.15625	  0.046872	  0.196269	  0.406159	
5.18952	  0.049249	  0.219216	  0.419158	
5.22278	  0.051154	  0.241329	  0.433305	
5.25605	  0.052432	  0.260343	  0.447422	
5.28931	  0.053010	  0.273896	  0.459559	
5.32258	  0.052945	  0.280335	  0.467879	
5.35585	  0.052408	  0.279458	  0.471543	
5.38911	  0.051640	  0.272618	  0.471133	
5.42238	  0.050869	  0.262053	  0.468452	
5.45565	  0.050259	  0.249937	  0.465922	
5.48891	  0.049918	  0.237872	  0.465945	
5.52218	  0.049941	  0.227028	  0.470374	
5.55544	  0.050430	  0.218463	  0.479918	
5.58871	  0.051435	  0.213077	  0.493521	
5.62198	  0.052855	  0.211231	  0.508251	
5.65524	  0.054401	  0.212492	  0.520336	
5.68851	  0.055692	  0.215830	  0.527010	
5.72177	  0.056436	  0.220118	  0.527786	
5.75504	  0.056583	  0.224536	  0.523979	
5.78831	  0.056325	  0.228677	  0.517039	
5.82157	  0.055965	  0.232487	  0.507481	
5.85484	  0.055761	  0.236291	  0.495452	
5.8881	  0.055855	  0.240858	  0.481988	
5.92137	  0.056283	  0.247162	  0.469329	
5.95464	  0.056995	  0.255732	  0.459935	
5.9879	  0.057860	  0.266028	  0.455289	
6.02117	  0.058669	  0.276438	  0.455577	
6.05444	  0.059180	  0.284968	  0.460102	
6.0877	  0.059219	  0.290088	  0.467646	
6.12097	  0.058750	  0.291154	  0.476544	
6.15423	  0.057875	  0.288288	  0.484833	
6.1875	  0.056753	  0.282099	  0.490785	
6.22077	  0.055513	  0.273589	  0.493513	
6.25403	  0.054250	  0.264228	  0.493130	
6.2873	  0.053086	  0.255859	  0.490410	
6.32056	  0.052213	  0.250162	  0.486352	
6.35383	  0.051833	  0.247857	  0.481984	
6.3871	  0.052026	  0.248174	  0.478305	
6.42036	  0.052646	  0.249057	  0.476056	
6.45363	  0.053349	  0.248127	  0.475364	
6.4869	  0.053771	  0.243884	  0.475678	
6.52016	  0.053726	  0.236417	  0.476314	
6.55343	  0.053284	  0.227114	  0.477292	
6.58669	  0.052691	  0.217708	  0.479748	
6.61996	  0.052217	  0.209481	  0.485403	
6.65323	  0.052047	  0.203281	  0.495423	
6.68649	  0.052258	  0.200005	  0.509535	
6.71976	  0.052835	  0.200711	  0.526018	
6.75302	  0.053679	  0.206027	  0.542506	
6.78629	  0.054639	  0.215419	  0.556973	
6.81956	  0.055568	  0.227105	  0.568328	
6.85282	  0.056371	  0.238691	  0.576421	
6.88609	  0.057002	  0.248022	  0.581630	
6.91935	  0.057430	  0.253780	  0.584338	
6.95262	  0.057627	  0.255750	  0.584579	
6.98589	  0.057604	  0.254772	  0.581948	
7.01915	  0.057432	  0.252303	  0.575816	
7.05242	  0.057210	  0.249680	  0.565833	
7.08569	  0.056983	  0.247510	  0.552547	
7.11895	  0.056697	  0.245620	  0.537698	
7.15222	  0.056230	  0.243493	  0.523795	
7.18548	  0.055472	  0.240810	  0.513059	
7.21875	  0.054431	  0.237817	  0.506389	
7.25202	  0.053294	  0.235446	  0.503133	
7.28528	  0.052395	  0.235099	  0.501814	
7.31855	  0.052068	  0.237972	  0.501175	
7.35181	  0.052458	  0.244150	  0.500707	
7.38508	  0.053403	  0.252119	  0.500440	
7.41835	  0.054472	  0.259202	  0.500529	
7.45161	  0.055161	  0.262804	  0.501202	
7.48488	  0.055136	  0.261721	  0.503015	
7.51815	  0.054407	  0.256693	  0.506873	
7.55141	  0.053310	  0.249905	  0.513531	
7.58468	  0.052328	  0.243817	  0.522854	
7.61794	  0.051881	  0.240100	  0.533455	
7.65121	  0.052189	  0.239224	  0.543027	
7.68448	  0.053254	  0.240685	  0.549148	
7.71774	  0.054906	  0.243524	  0.550083	
7.75101	  0.056855	  0.246818	  0.545241	
7.78427	  0.058748	  0.249935	  0.535200	
7.81754	  0.060223	  0.252434	  0.521377	
7.85081	  0.060964	  0.253785	  0.505441	
7.88407	  0.060778	  0.253339	  0.488805	
7.91734	  0.059670	  0.250753	  0.472583	
7.9506	  0.057874	  0.246489	  0.457961	
7.98387	  0.055787	  0.241810	  0.446401	
8.01714	  0.053806	  0.238177	  0.439188	
8.0504	  0.052203	  0.236524	  0.436690	
8.08367	  0.051099	  0.236911	  0.438222	
8.11694	  0.050536	  0.238643	  0.442696	
8.1502	  0.050529	  0.240669	  0.449248	
8.18347	  0.051054	  0.242005	  0.457078	
8.21673	  0.052001	  0.242070	  0.464854	
8.25	  0.053155	  0.240777	  0.470689	
8.28327	  0.054246	  0.238346	  0.473043	
8.31653	  0.055030	  0.235006	  0.471742	
8.3498	  0.055397	  0.230988	  0.468143	
8.38306	  0.055438	  0.226939	  0.464342	
8.41633	  0.055457	  0.224326	  0.462151	
8.4496	  0.055863	  0.225205	  0.462442	
8.48286	  0.057006	  0.231217	  0.465045	
8.51613	  0.059011	  0.242508	  0.469091	
8.5494	  0.061719	  0.257470	  0.473664	
8.58266	  0.064741	  0.273473	  0.478401	
8.61593	  0.067603	  0.287926	  0.483501	
8.64919	  0.069857	  0.298864	  0.488992	
8.68246	  0.071171	  0.305007	  0.493921	
8.71573	  0.071418	  0.305941	  0.496539	
8.74899	  0.070779	  0.302760	  0.495640	
8.78226	  0.069803	  0.298527	  0.491873	
8.81552	  0.069260	  0.297572	  0.487647	
8.84879	  0.069821	  0.303569	  0.485625	
8.88206	  0.071746	  0.317578	  0.487181	
8.91532	  0.074752	  0.337411	  0.492025	
8.94859	  0.078128	  0.358583	  0.498914	
8.98185	  0.080983	  0.376032	  0.506410	
9.01512	  0.082519	  0.385634	  0.513081	
9.04839	  0.082258	  0.385139	  0.517446	
9.08165	  0.080171	  0.374577	  0.518320	
9.11492	  0.076658	  0.356155	  0.515549	
9.14819	  0.072382	  0.333616	  0.510376	
9.18145	  0.068028	  0.311143	  0.504746	
9.21472	  0.064101	  0.292075	  0.499800	
9.24798	  0.060820	  0.277883	  0.494724	
9.28125	  0.058138	  0.267887	  0.487053	
9.31452	  0.055859	  0.260032	  0.474410	
9.34778	  0.053794	  0.252312	  0.456320	
9.38105	  0.051857	  0.243890	  0.434585	
9.41431	  0.050043	  0.235096	  0.411859	
9.44758	  0.048298	  0.226417	  0.389716	
9.48085	  0.046421	  0.217469	  0.367788	
9.51411	  0.044112	  0.206835	  0.344526	
9.54738	  0.041134	  0.192885	  0.318672	
9.58065	  0.037482	  0.174876	  0.290161	
9.61391	  0.033403	  0.153463	  0.259892	
9.64718	  0.029281	  0.130359	  0.228841	
9.68044	  0.025467	  0.107523	  0.197436	
9.71371	  0.022188	  0.086517	  0.165735	
9.74698	  0.019537	  0.068341	  0.134153	
9.78024	  0.017514	  0.053553	  0.103962	
9.81351	  0.016031	  0.042339	  0.077027	
9.84677	  0.014912	  0.034416	  0.054980	
9.88004	  0.013924	  0.029009	  0.038503	
9.91331	  0.012851	  0.025085	  0.027228	
9.94657	  0.011574	  0.021759	  0.020139	
9.97984	  0.010099	  0.018556	  0.016082	
10.0131	  0.008521	  0.015397	  0.014071	
